<mxfile host="app.diagrams.net" modified="2023-11-23T18:40:47.127Z" agent="Mozilla/5.0 (Windows NT 10.0; Win64; x64) AppleWebKit/537.36 (KHTML, like Gecko) Chrome/119.0.0.0 Safari/537.36" etag="h2mLtKTLo9y7o6xHXvsw" version="22.1.3" type="device">
  <diagram name="Page-1" id="2YBvvXClWsGukQMizWep">
    <mxGraphModel dx="1853" dy="539" grid="1" gridSize="10" guides="1" tooltips="1" connect="1" arrows="1" fold="1" page="1" pageScale="1" pageWidth="850" pageHeight="1100" math="0" shadow="0">
      <root>
        <mxCell id="0" />
        <mxCell id="1" parent="0" />
        <mxCell id="aM9ryv3xv72pqoxQDRHE-1" value="Login" style="shape=umlLifeline;perimeter=lifelinePerimeter;whiteSpace=wrap;html=1;container=0;dropTarget=0;collapsible=0;recursiveResize=0;outlineConnect=0;portConstraint=eastwest;newEdgeStyle={&quot;edgeStyle&quot;:&quot;elbowEdgeStyle&quot;,&quot;elbow&quot;:&quot;vertical&quot;,&quot;curved&quot;:0,&quot;rounded&quot;:0};" parent="1" vertex="1">
          <mxGeometry x="220" y="40" width="100" height="660" as="geometry" />
        </mxCell>
        <mxCell id="aM9ryv3xv72pqoxQDRHE-7" value="Enter Credentials&amp;nbsp;" style="html=1;verticalAlign=bottom;endArrow=block;edgeStyle=elbowEdgeStyle;elbow=vertical;curved=0;rounded=0;" parent="1" source="QAOvOlGFRHG_OL1_7ynz-3" edge="1">
          <mxGeometry relative="1" as="geometry">
            <mxPoint x="95" y="120" as="sourcePoint" />
            <Array as="points">
              <mxPoint x="180" y="120" />
            </Array>
            <mxPoint x="265" y="120" as="targetPoint" />
            <mxPoint as="offset" />
          </mxGeometry>
        </mxCell>
        <mxCell id="aM9ryv3xv72pqoxQDRHE-9" value="Requeset Credentials Again&amp;nbsp;" style="html=1;verticalAlign=bottom;endArrow=block;edgeStyle=elbowEdgeStyle;elbow=vertical;curved=0;rounded=0;" parent="1" source="aM9ryv3xv72pqoxQDRHE-1" edge="1">
          <mxGeometry relative="1" as="geometry">
            <mxPoint x="265" y="280" as="sourcePoint" />
            <Array as="points">
              <mxPoint x="190" y="280" />
            </Array>
            <mxPoint x="89.75925925925935" y="280" as="targetPoint" />
          </mxGeometry>
        </mxCell>
        <mxCell id="QAOvOlGFRHG_OL1_7ynz-2" value="frame" style="shape=umlFrame;whiteSpace=wrap;html=1;pointerEvents=0;" vertex="1" parent="1">
          <mxGeometry x="-480" y="120" width="300" height="200" as="geometry" />
        </mxCell>
        <mxCell id="QAOvOlGFRHG_OL1_7ynz-3" value="&lt;br&gt;&lt;br&gt;&lt;br&gt;&lt;br&gt;Customer" style="shape=umlLifeline;perimeter=lifelinePerimeter;whiteSpace=wrap;html=1;container=1;dropTarget=0;collapsible=0;recursiveResize=0;outlineConnect=0;portConstraint=eastwest;newEdgeStyle={&quot;curved&quot;:0,&quot;rounded&quot;:0};participant=umlActor;" vertex="1" parent="1">
          <mxGeometry x="80" y="30" width="20" height="670" as="geometry" />
        </mxCell>
        <mxCell id="QAOvOlGFRHG_OL1_7ynz-8" value="User Authentication" style="shape=umlLifeline;perimeter=lifelinePerimeter;whiteSpace=wrap;html=1;container=1;dropTarget=0;collapsible=0;recursiveResize=0;outlineConnect=0;portConstraint=eastwest;newEdgeStyle={&quot;curved&quot;:0,&quot;rounded&quot;:0};" vertex="1" parent="1">
          <mxGeometry x="410" y="40" width="115" height="630" as="geometry" />
        </mxCell>
        <mxCell id="QAOvOlGFRHG_OL1_7ynz-13" value="Verify Credentials" style="html=1;verticalAlign=bottom;endArrow=block;edgeStyle=elbowEdgeStyle;elbow=vertical;curved=0;rounded=0;" edge="1" parent="1" target="QAOvOlGFRHG_OL1_7ynz-8">
          <mxGeometry relative="1" as="geometry">
            <mxPoint x="270" y="150" as="sourcePoint" />
            <Array as="points">
              <mxPoint x="360" y="150" />
            </Array>
            <mxPoint x="460" y="150" as="targetPoint" />
            <mxPoint as="offset" />
          </mxGeometry>
        </mxCell>
        <mxCell id="QAOvOlGFRHG_OL1_7ynz-14" value="Alternative" style="shape=umlFrame;whiteSpace=wrap;html=1;pointerEvents=0;width=70;height=30;" vertex="1" parent="1">
          <mxGeometry x="-10" y="170" width="610" height="120" as="geometry" />
        </mxCell>
        <mxCell id="QAOvOlGFRHG_OL1_7ynz-15" value="Credentials Ok&amp;nbsp;" style="html=1;verticalAlign=bottom;endArrow=block;dashed=1;endSize=8;curved=0;rounded=0;endFill=1;" edge="1" parent="1">
          <mxGeometry relative="1" as="geometry">
            <mxPoint x="467" y="219.63" as="sourcePoint" />
            <mxPoint x="269.75925925925935" y="219.63" as="targetPoint" />
          </mxGeometry>
        </mxCell>
        <mxCell id="QAOvOlGFRHG_OL1_7ynz-20" value="[If Credentials]" style="text;html=1;align=center;verticalAlign=middle;resizable=0;points=[];autosize=1;strokeColor=none;fillColor=none;fontStyle=1" vertex="1" parent="1">
          <mxGeometry x="-15" y="205" width="110" height="30" as="geometry" />
        </mxCell>
        <mxCell id="QAOvOlGFRHG_OL1_7ynz-21" value="" style="endArrow=none;dashed=1;html=1;rounded=0;exitX=-0.005;exitY=0.534;exitDx=0;exitDy=0;exitPerimeter=0;entryX=1.001;entryY=0.529;entryDx=0;entryDy=0;entryPerimeter=0;" edge="1" parent="1" source="QAOvOlGFRHG_OL1_7ynz-14" target="QAOvOlGFRHG_OL1_7ynz-14">
          <mxGeometry width="50" height="50" relative="1" as="geometry">
            <mxPoint x="-20.005000000000045" y="234.25999999999993" as="sourcePoint" />
            <mxPoint x="556.7199999999997" y="234.25999999999993" as="targetPoint" />
          </mxGeometry>
        </mxCell>
        <mxCell id="QAOvOlGFRHG_OL1_7ynz-23" value="[Else]" style="text;html=1;align=center;verticalAlign=middle;resizable=0;points=[];autosize=1;strokeColor=none;fillColor=none;fontStyle=1" vertex="1" parent="1">
          <mxGeometry x="-15" y="235" width="60" height="30" as="geometry" />
        </mxCell>
        <mxCell id="QAOvOlGFRHG_OL1_7ynz-24" value="Invalid Credentials&amp;nbsp;" style="html=1;verticalAlign=bottom;endArrow=block;dashed=1;endSize=8;curved=0;rounded=0;endFill=1;" edge="1" parent="1">
          <mxGeometry relative="1" as="geometry">
            <mxPoint x="467.24" y="260" as="sourcePoint" />
            <mxPoint x="269.99925925925936" y="260" as="targetPoint" />
          </mxGeometry>
        </mxCell>
        <mxCell id="QAOvOlGFRHG_OL1_7ynz-25" value="Admin" style="shape=umlLifeline;perimeter=lifelinePerimeter;whiteSpace=wrap;html=1;container=1;dropTarget=0;collapsible=0;recursiveResize=0;outlineConnect=0;portConstraint=eastwest;newEdgeStyle={&quot;curved&quot;:0,&quot;rounded&quot;:0};" vertex="1" parent="1">
          <mxGeometry x="610" y="290" width="100" height="500" as="geometry" />
        </mxCell>
        <mxCell id="QAOvOlGFRHG_OL1_7ynz-26" value="Update Password" style="html=1;verticalAlign=bottom;endArrow=block;edgeStyle=elbowEdgeStyle;elbow=vertical;curved=0;rounded=0;" edge="1" parent="1">
          <mxGeometry relative="1" as="geometry">
            <mxPoint x="90" y="350" as="sourcePoint" />
            <Array as="points">
              <mxPoint x="181" y="350" />
            </Array>
            <mxPoint x="659.5" y="350" as="targetPoint" />
            <mxPoint as="offset" />
          </mxGeometry>
        </mxCell>
        <mxCell id="QAOvOlGFRHG_OL1_7ynz-27" value="Confirmation&amp;nbsp; Message" style="html=1;verticalAlign=bottom;endArrow=block;dashed=1;endSize=8;curved=0;rounded=0;endFill=1;" edge="1" parent="1" source="QAOvOlGFRHG_OL1_7ynz-25">
          <mxGeometry relative="1" as="geometry">
            <mxPoint x="639.5" y="390" as="sourcePoint" />
            <mxPoint x="90" y="390" as="targetPoint" />
          </mxGeometry>
        </mxCell>
      </root>
    </mxGraphModel>
  </diagram>
</mxfile>
